
<svg version="1.1" id="svg1" xmlns="http://www.w3.org/2000/svg" width="31" height="32" viewBox="0 0 31 32">
<title>arrowUp2</title>
<path fill="#fff" stroke="black" stroke-dasharray=" 20px 20px" d="M16.283 30.28c2.859-0.152 5.534-1.080 7.825-2.712 2.857-2.036 4.893-5.021 5.743-8.416 0.177-0.703 0.308-1.482 0.386-2.291 0.055-0.579 0.055-1.972 0-2.551-0.186-1.917-0.648-3.569-1.466-5.231-1.907-3.87-5.433-6.715-9.622-7.763-0.703-0.177-1.482-0.308-2.291-0.386-0.579-0.055-1.972-0.055-2.551 0-1.917 0.186-3.569 0.648-5.23 1.466-4.1 2.020-7.053 5.874-7.924 10.339-0.198 1.009-0.264 1.735-0.264 2.85 0 0.926 0.025 1.312 0.138 2.091 0.496 3.47 2.218 6.646 4.849 8.956 2.369 2.078 5.244 3.309 8.409 3.604 0.372 0.034 1.645 0.062 1.999 0.044zM14.53 27.89c-4.318-0.352-8.177-3.008-10.068-6.931-0.666-1.381-1.048-2.772-1.188-4.321-0.046-0.529-0.046-1.577 0-2.105 0.264-2.944 1.505-5.61 3.576-7.68 2.071-2.068 4.736-3.312 7.68-3.576 0.529-0.046 1.577-0.046 2.105 0 1.547 0.14 2.942 0.522 4.32 1.188 3.684 1.776 6.269 5.3 6.853 9.344 0.161 1.121 0.161 2.431 0 3.553-0.584 4.038-3.162 7.559-6.837 9.337-2.027 0.979-4.173 1.377-6.442 1.19z"><animate id="p1" attributeName="stroke-dashoffset" begin="svg1.click" values="30; 0" dur="10s" repeatCount="1" fill="freeze" calcMode="linear"></animate></path>
<path fill="#ff6b01" stroke="black"  d="M18.259 24.355c0.126-0.060 0.216-0.138 0.294-0.264l0.051-0.083 0.023-9.721 1.195-0.011c0.848-0.009 1.213-0.018 1.255-0.039 0.287-0.129 0.411-0.529 0.257-0.832-0.041-0.083-0.984-1.232-2.705-3.3-1.452-1.744-2.661-3.19-2.689-3.213-0.2-0.172-0.517-0.172-0.717 0-0.028 0.023-1.236 1.469-2.689 3.213-1.721 2.068-2.664 3.217-2.705 3.3-0.154 0.303-0.030 0.703 0.257 0.832 0.041 0.021 0.407 0.030 1.255 0.039l1.195 0.011 0.023 9.721 0.051 0.083c0.078 0.126 0.168 0.205 0.294 0.264l0.115 0.055h5.125z"></path>
</svg>
