<!-- Generated by IcoMoon.io -->
<svg version="1.1" xmlns="http://www.w3.org/2000/svg" width="33" height="32" viewBox="0 0 33 32">
<title>arrow-up</title>
<path fill="#1d1d1b" d="M15.832 31.664c-8.737 0-15.832-7.095-15.832-15.832s7.095-15.832 15.832-15.832 15.832 7.095 15.832 15.832-7.095 15.832-15.832 15.832zM15.832 1.12c-8.121 0-14.712 6.59-14.712 14.712s6.59 14.712 14.712 14.712 14.712-6.59 14.712-14.712-6.609-14.712-14.712-14.712z"></path>
<path fill="#f90" d="M17.512 1.456c-8.439 0-15.272 6.833-15.272 15.272s6.833 15.272 15.272 15.272 15.272-6.833 15.272-15.272-6.833-15.272-15.272-15.272zM21.414 18.091v6.441l-8.401 0.093 0.093-6.534-3.454-0.093 7.561-8.121 7.188 8.215h-2.987z"></path>
<path fill="#f90" opacity="0.4" d="M21.414 18.091v6.441l-8.401 0.093 0.093-6.534-3.454-0.093 7.561-8.121 7.188 8.215z"></path>
<path fill="#1d1d1b" d="M11.146 23.879l0.093-6.553-4.145-0.112 8.831-9.484 8.401 9.615h-3.659v6.441l-9.522 0.093zM9.596 16.168l2.763 0.075-0.093 6.516 7.281-0.075v-6.46h2.315l-5.974-6.814-6.292 6.758z"></path>
</svg>
